<svg xmlns="http://www.w3.org/2000/svg" width="356" height="79" viewBox="0 0 356 79">
  <g id="logo_updated_grey" data-name="logo updated grey" transform="translate(-50 -49.6)">
    <g class="logo-text" id="Group_12" data-name="Group 12" transform="translate(50 62.488)">
      <path id="Path_40" data-name="Path 40" d="M80.426,176.693a10.132,10.132,0,0,1-.873,4.2,10.742,10.742,0,0,1-2.385,3.39,10.909,10.909,0,0,1-3.549,2.261,11.516,11.516,0,0,1-4.305.811H50V146.209H69.256a8.185,8.185,0,0,1,3.9.927,9.732,9.732,0,0,1,2.967,2.405,11.023,11.023,0,0,1,1.891,3.361,11.3,11.3,0,0,1,.669,3.8,10.907,10.907,0,0,1-1.571,5.737,9.321,9.321,0,0,1-4.363,3.825,10.276,10.276,0,0,1,5.614,3.912A10.886,10.886,0,0,1,80.426,176.693ZM52.967,148.875v16.459H68.093a6.818,6.818,0,0,0,3.083-.7,8.035,8.035,0,0,0,2.414-1.826,8.716,8.716,0,0,0,2.181-5.708,8.95,8.95,0,0,0-.552-3.159,8.707,8.707,0,0,0-1.513-2.608,7.19,7.19,0,0,0-2.3-1.8,6.571,6.571,0,0,0-2.967-.667Zm24.492,27.413a8.993,8.993,0,0,0-2.211-5.883,7.864,7.864,0,0,0-2.472-1.883,6.879,6.879,0,0,0-3.054-.7H52.967v16.865H69.314a7.509,7.509,0,0,0,3.229-.7,7.993,7.993,0,0,0,2.559-1.883,9.535,9.535,0,0,0,1.716-2.7A7.928,7.928,0,0,0,77.459,176.287Z" transform="translate(-50 -145.919)" fill="#fff"/>
      <path id="Path_41" data-name="Path 41" d="M320.647,187.356V146.209h17.162a10.687,10.687,0,0,1,4.829,1.1,12.324,12.324,0,0,1,3.811,2.927,13.966,13.966,0,0,1,2.5,4.115,12.49,12.49,0,0,1,.9,4.607,13.882,13.882,0,0,1-.7,4.376,12.883,12.883,0,0,1-1.978,3.8,11.136,11.136,0,0,1-3.083,2.782,10.819,10.819,0,0,1-3.956,1.449l10.3,16H347l-10.007-15.531h-13.38v15.531Zm2.967-18.256H338.1a7.54,7.54,0,0,0,3.607-.869,9.133,9.133,0,0,0,2.793-2.289,10.142,10.142,0,0,0,1.774-3.245,11.7,11.7,0,0,0,.611-3.738,10.177,10.177,0,0,0-.727-3.8,10.687,10.687,0,0,0-1.978-3.216,9.9,9.9,0,0,0-2.909-2.231,7.811,7.811,0,0,0-3.578-.841H323.614Z" transform="translate(-283.589 -145.919)" fill="#fff"/>
      <path id="Path_42" data-name="Path 42" d="M585.769,187.356V146.209h2.967v41.147Z" transform="translate(-512.41 -145.919)" fill="#fff"/>
      <path id="Path_43" data-name="Path 43" d="M688.3,179.089q-5.992,6.723-13.9,6.723a17.052,17.052,0,0,1-7.766-1.8,19.744,19.744,0,0,1-6.138-4.752,22.6,22.6,0,0,1-4.014-6.723,21.07,21.07,0,0,1-1.455-7.65A22.207,22.207,0,0,1,660.4,150.4a19.027,19.027,0,0,1,6.021-4.608,17.1,17.1,0,0,1,7.621-1.709,21.4,21.4,0,0,1,5.556.666,16.918,16.918,0,0,1,4.421,1.855,14.17,14.17,0,0,1,3.375,2.84,17.676,17.676,0,0,1,2.414,3.622l-2.443,1.449a13.261,13.261,0,0,0-5.556-5.882,16.514,16.514,0,0,0-7.825-1.825,13.994,13.994,0,0,0-6.632,1.564,16.353,16.353,0,0,0-5.062,4.115,18.385,18.385,0,0,0-3.2,5.8,20.526,20.526,0,0,0-1.106,6.665,19,19,0,0,0,4.8,12.692,17.086,17.086,0,0,0,5.265,3.97,14.643,14.643,0,0,0,6.516,1.478,15.583,15.583,0,0,0,7.185-1.738,21.379,21.379,0,0,0,6.545-5.506V167.9h-9.366v-2.376h11.926v19.994H688.3Z" transform="translate(-572.18 -144.084)" fill="#fff"/>
      <path id="Path_44" data-name="Path 44" d="M1001.858,146.209v41.147h-2.967v-19.7H972.828v19.7h-2.967V146.209h2.967v18.777h26.063V146.209Z" transform="translate(-843.911 -145.919)" fill="#fff"/>
      <path id="Path_45" data-name="Path 45" d="M1272.874,148.875h-15.126v38.482h-2.967V148.875h-15.126v-2.666h33.219Z" transform="translate(-1076.764 -145.919)" fill="#fff"/>
      <path id="Path_46" data-name="Path 46" d="M1545.892,184.691v2.665h-27.518V146.209h26.994v2.666h-24.027v16.169h21v2.55h-21v17.1Z" transform="translate(-1317.32 -145.919)" fill="#fff"/>
      <path id="Path_47" data-name="Path 47" d="M1767.784,187.356V146.209h17.162a10.689,10.689,0,0,1,4.828,1.1,12.333,12.333,0,0,1,3.81,2.927,13.969,13.969,0,0,1,2.5,4.115,12.5,12.5,0,0,1,.9,4.607,13.866,13.866,0,0,1-.7,4.376,12.869,12.869,0,0,1-1.978,3.8,11.132,11.132,0,0,1-3.083,2.782,10.819,10.819,0,0,1-3.956,1.449l10.3,16h-3.432l-10.007-15.531h-13.38v15.531Zm2.967-18.256h14.486a7.54,7.54,0,0,0,3.607-.869,9.129,9.129,0,0,0,2.792-2.289,10.151,10.151,0,0,0,1.775-3.245,11.707,11.707,0,0,0,.61-3.738,10.173,10.173,0,0,0-.727-3.8,10.682,10.682,0,0,0-1.978-3.216,9.89,9.89,0,0,0-2.909-2.231,7.809,7.809,0,0,0-3.578-.841h-14.078Z" transform="translate(-1532.58 -145.919)" fill="#fff"/>
    </g>
    <g  class="logo-text" id="Group_13" data-name="Group 13" transform="translate(358.877 62.778)">
      <path id="Path_48" data-name="Path 48" d="M2305.843,187.359V146.211h8.029v41.148Z" transform="translate(-2305.843 -146.211)" fill="#fff"/>
      <path id="Path_49" data-name="Path 49" d="M2406.114,187.359V146.211h18.267a11.769,11.769,0,0,1,5.265,1.188,13.643,13.643,0,0,1,4.16,3.129,14.809,14.809,0,0,1,2.734,4.4,13.214,13.214,0,0,1,.989,4.955,13.642,13.642,0,0,1-2.007,7.273,11.5,11.5,0,0,1-5.44,4.723l9.425,15.474h-9.017l-8.436-13.793h-7.912v13.793Zm8.028-20.806h10.065a4.261,4.261,0,0,0,2.065-.521,5.269,5.269,0,0,0,1.658-1.42,7.067,7.067,0,0,0,1.105-2.115,8.172,8.172,0,0,0,.407-2.608,7.422,7.422,0,0,0-.465-2.666,6.975,6.975,0,0,0-1.251-2.115,5.669,5.669,0,0,0-1.8-1.391,4.708,4.708,0,0,0-2.065-.493h-9.716Z" transform="translate(-2392.385 -146.211)" fill="#fff"/>
    </g>
    <g  class="logo-text" id="Group_14" data-name="Group 14" transform="translate(226.712 112.257)">
      <path id="Path_50" data-name="Path 50" d="M1349.883,544.053h-1.911v-1.607h-.035a3.186,3.186,0,0,1-3.067,1.833,4.253,4.253,0,0,1-4.276-4.54,4.439,4.439,0,0,1,4.662-4.54,4.38,4.38,0,0,1,4.627,4.61Zm-2.086-4.313a2.551,2.551,0,1,0-2.541,2.6A2.452,2.452,0,0,0,1347.8,539.74Z" transform="translate(-1340.594 -531.621)" fill="#fff"/>
      <path id="Path_51" data-name="Path 51" d="M1455.023,539.81a4.371,4.371,0,0,1,4.627-4.61,4.439,4.439,0,0,1,4.662,4.54,4.253,4.253,0,0,1-4.277,4.54,3.327,3.327,0,0,1-2.892-1.432h-.035v4.889h-2.086Zm2.086-.07a2.551,2.551,0,1,0,2.541-2.6A2.452,2.452,0,0,0,1457.109,539.74Z" transform="translate(-1439.355 -531.621)" fill="#fff"/>
      <path id="Path_52" data-name="Path 52" d="M1538.367,539.129v-.087c0-1.4-.7-1.9-1.718-1.9s-1.718.506-1.718,1.9v5.011h-2.086v-5.011a3.476,3.476,0,0,1,3.8-3.841c2.261,0,3.786,1.24,3.786,3.876v.052Z" transform="translate(-1506.522 -531.621)" fill="#fff"/>
      <path id="Path_53" data-name="Path 53" d="M1598.562,544.279a4.541,4.541,0,1,1,4.662-4.54A4.439,4.439,0,0,1,1598.562,544.279Zm2.541-4.54a2.551,2.551,0,1,0-2.541,2.6A2.452,2.452,0,0,0,1601.1,539.74Z" transform="translate(-1559.217 -531.621)" fill="#fff"/>
      <path id="Path_54" data-name="Path 54" d="M1678.71,544.053H1676.8v-1.607h-.035a3.186,3.186,0,0,1-3.067,1.833,4.253,4.253,0,0,1-4.276-4.54,4.439,4.439,0,0,1,4.662-4.54,4.38,4.38,0,0,1,4.627,4.61Zm-2.086-4.313a2.551,2.551,0,1,0-2.541,2.6A2.452,2.452,0,0,0,1676.624,539.74Z" transform="translate(-1624.396 -531.621)" fill="#fff"/>
      <path id="Path_55" data-name="Path 55" d="M1754.288,538.657a2.6,2.6,0,1,0,0,2.165h2.1a4.347,4.347,0,0,1-4.487,3.457,4.541,4.541,0,1,1,0-9.079,4.347,4.347,0,0,1,4.487,3.457Z" transform="translate(-1691.563 -531.621)" fill="#fff"/>
      <path id="Path_56" data-name="Path 56" d="M1831.122,523.933a3.54,3.54,0,1,1-7.081,0v-8.189h2.086v2.881h4.47v1.886h-4.47v3.422c0,1.152.6,1.606,1.455,1.606s1.455-.437,1.455-1.606v-.227h2.086Z" transform="translate(-1757.846 -514.819)" fill="#fff"/>
      <path id="Path_57" data-name="Path 57" d="M1885.1,510.356a1.385,1.385,0,1,1,2.769,0,1.385,1.385,0,0,1-2.769,0Zm.35,11.035v-8.625h2.086v8.625Z" transform="translate(-1810.542 -508.959)" fill="#fff"/>
      <path id="Path_58" data-name="Path 58" d="M1916.911,545.489l-3.4-8.625h2.278l2.384,6.67h.035l2.384-6.67h2.226l-3.4,8.625Z" transform="translate(-1835.065 -533.058)" fill="#fff"/>
      <path id="Path_59" data-name="Path 59" d="M1986.613,540.473v.035a2.388,2.388,0,0,0,2.471,1.886,2.436,2.436,0,0,0,2.051-.821h2.226a4.39,4.39,0,0,1-4.277,2.706,4.541,4.541,0,1,1,4.627-4.54v.733Zm.053-1.694v.035h4.838v-.035a2.574,2.574,0,0,0-4.838,0Z" transform="translate(-1896.267 -531.621)" fill="#fff"/>
      <path id="Path_60" data-name="Path 60" d="M2100.778,538.657a2.6,2.6,0,1,0,0,2.165h2.1a4.347,4.347,0,0,1-4.487,3.457,4.541,4.541,0,1,1,0-9.079,4.347,4.347,0,0,1,4.487,3.457Z" transform="translate(-1990.61 -531.621)" fill="#fff"/>
      <path id="Path_61" data-name="Path 61" d="M2172.633,544.279a4.541,4.541,0,1,1,4.662-4.54A4.439,4.439,0,0,1,2172.633,544.279Zm2.541-4.54a2.551,2.551,0,1,0-2.541,2.6A2.452,2.452,0,0,0,2175.174,539.74Z" transform="translate(-2054.684 -531.621)" fill="#fff"/>
      <path id="Path_62" data-name="Path 62" d="M2251.642,544.053v-4.924c0-1.4-.754-1.99-1.753-1.99-1.017,0-1.753.576-1.753,1.99v4.924h-2.085v-4.924c0-2.706,1.577-3.929,3.628-3.929a3.394,3.394,0,0,1,2.98,1.519h.035a3.354,3.354,0,0,1,2.98-1.519c2.051,0,3.628,1.222,3.628,3.929v4.924h-2.085v-4.924c0-1.414-.736-1.99-1.753-1.99-1,0-1.735.594-1.735,1.99v4.924Z" transform="translate(-2122.073 -531.621)" fill="#fff"/>
      <path id="Path_63" data-name="Path 63" d="M2355.361,539.81a4.371,4.371,0,0,1,4.627-4.61,4.439,4.439,0,0,1,4.662,4.54,4.253,4.253,0,0,1-4.276,4.54,3.326,3.326,0,0,1-2.892-1.432h-.035v4.889h-2.086Zm2.086-.07a2.551,2.551,0,1,0,2.541-2.6A2.452,2.452,0,0,0,2357.447,539.74Z" transform="translate(-2216.416 -531.621)" fill="#fff"/>
      <path id="Path_64" data-name="Path 64" d="M2439.912,544.053H2438v-1.607h-.035a3.186,3.186,0,0,1-3.067,1.833,4.253,4.253,0,0,1-4.276-4.54,4.439,4.439,0,0,1,4.662-4.54,4.38,4.38,0,0,1,4.627,4.61Zm-2.086-4.313a2.551,2.551,0,1,0-2.541,2.6A2.452,2.452,0,0,0,2437.826,539.74Z" transform="translate(-2281.373 -531.621)" fill="#fff"/>
      <path id="Path_65" data-name="Path 65" d="M2517.473,544.053v-4.487c0-1.641-.876-2.427-2.191-2.427s-2.191.786-2.191,2.427v4.487h-2.086v-4.487c0-2.881,1.718-4.365,4.276-4.365s4.277,1.467,4.277,4.365v4.487Z" transform="translate(-2350.75 -531.621)" fill="#fff"/>
      <path id="Path_66" data-name="Path 66" d="M2592.481,544.232h-.035a2.842,2.842,0,0,1-2.542,1.379c-2,0-3.891-1.292-3.891-4.365v-4.383h2.086v4.383c0,1.641.876,2.427,2.191,2.427a2.132,2.132,0,0,0,2.191-2.427v-4.383h2.086v8.329c0,3-1.911,4.208-4.312,4.208a3.906,3.906,0,0,1-4.172-2.968h2.086a2.016,2.016,0,0,0,2.086,1.17c1.42,0,2.226-.681,2.226-2.357Z" transform="translate(-2415.487 -533.058)" fill="#fff"/>
    </g>
    <path id="Path_67" data-name="Path 67" d="M2056,73.208l-8.865-5.1-.007,0a.324.324,0,0,1-.016-.556h0l.008,0a.351.351,0,0,1,.034-.019L2056,62.438a2.731,2.731,0,1,0-2.739-4.725l-8.867,5.1,0,0a.33.33,0,0,1-.449-.12.322.322,0,0,1-.042-.144h0v-.017c0-.01,0-.02,0-.029V52.328a2.739,2.739,0,0,0-5.477,0V62.509h0v.042h0a.323.323,0,0,1-.042.144.33.33,0,0,1-.449.12l-.007,0-8.864-5.1a2.731,2.731,0,1,0-2.738,4.725l8.848,5.089.024.014.023.013h0a.325.325,0,0,1-.023.551l-.005,0-8.866,5.1a2.731,2.731,0,0,0,2.738,4.725l8.847-5.088a.328.328,0,0,1,.517.268s0,.005,0,.008v10.2a2.739,2.739,0,0,0,5.477,0V73.128s0-.009,0-.014a.329.329,0,0,1,.516-.269l8.849,5.089A2.731,2.731,0,1,0,2056,73.208Z" transform="translate(-1705.001)" fill="#ffbe00"/>
  </g>
</svg>
